<mxfile host="app.diagrams.net" modified="2020-10-02T08:06:02.282Z" agent="5.0 (Windows)" etag="ORV96ID-6zEiVisfJeUE" version="13.7.7" type="github">
  <diagram id="w7eTThsmB06BPjCYAfZA" name="Page-1">
    <mxGraphModel dx="920" dy="475" grid="1" gridSize="10" guides="0" tooltips="1" connect="1" arrows="1" fold="1" page="1" pageScale="1" pageWidth="827" pageHeight="1169" math="0" shadow="0">
      <root>
        <mxCell id="0" />
        <mxCell id="1" parent="0" />
        <mxCell id="3plvlCjY5yp-JgMp3wiJ-14" value="" style="edgeStyle=orthogonalEdgeStyle;rounded=0;orthogonalLoop=1;jettySize=auto;html=1;shape=link;entryX=1;entryY=0.5;entryDx=0;entryDy=0;" edge="1" parent="1" source="3plvlCjY5yp-JgMp3wiJ-11" target="3plvlCjY5yp-JgMp3wiJ-4">
          <mxGeometry relative="1" as="geometry">
            <mxPoint x="450" y="240" as="targetPoint" />
          </mxGeometry>
        </mxCell>
        <mxCell id="3plvlCjY5yp-JgMp3wiJ-38" value="" style="edgeStyle=orthogonalEdgeStyle;rounded=0;orthogonalLoop=1;jettySize=auto;html=1;" edge="1" parent="1">
          <mxGeometry relative="1" as="geometry">
            <mxPoint x="600" y="110" as="sourcePoint" />
            <mxPoint x="730" y="110" as="targetPoint" />
            <Array as="points">
              <mxPoint x="640" y="110" />
            </Array>
          </mxGeometry>
        </mxCell>
        <mxCell id="3plvlCjY5yp-JgMp3wiJ-41" value="Reply Messge" style="text;html=1;align=center;verticalAlign=middle;resizable=0;points=[];autosize=1;" vertex="1" parent="1">
          <mxGeometry x="610" y="110" width="90" height="20" as="geometry" />
        </mxCell>
        <mxCell id="3plvlCjY5yp-JgMp3wiJ-61" value="" style="group" vertex="1" connectable="0" parent="1">
          <mxGeometry x="620.0008018257274" y="210.00008755823382" width="178.68839634854498" height="206.68982488353237" as="geometry" />
        </mxCell>
        <mxCell id="3plvlCjY5yp-JgMp3wiJ-57" value="" style="whiteSpace=wrap;html=1;shape=mxgraph.basic.document;fontFamily=Times New Roman;fontSize=15;labelBackgroundColor=none;fillColor=#fad9d5;strokeColor=#ae4132;shadow=1;sketch=1;rotation=15;" vertex="1" parent="3plvlCjY5yp-JgMp3wiJ-61">
          <mxGeometry x="20.579198174272506" y="14.779912441766186" width="137.53" height="177.13" as="geometry" />
        </mxCell>
        <mxCell id="3plvlCjY5yp-JgMp3wiJ-53" value="&lt;div style=&quot;font-size: 20px;&quot;&gt;ghsable/aimay&lt;/div&gt;" style="text;html=1;align=center;verticalAlign=middle;resizable=0;points=[];autosize=1;fontStyle=2;fontFamily=Times New Roman;fontSize=20;rotation=15;" vertex="1" parent="3plvlCjY5yp-JgMp3wiJ-61">
          <mxGeometry x="27.33919817427261" y="80.92991244176619" width="130" height="30" as="geometry" />
        </mxCell>
        <mxCell id="3plvlCjY5yp-JgMp3wiJ-55" value="name : suna" style="text;html=1;align=center;verticalAlign=middle;resizable=0;points=[];autosize=1;fontStyle=2;fontFamily=Times New Roman;fontSize=15;rotation=15;" vertex="1" parent="3plvlCjY5yp-JgMp3wiJ-61">
          <mxGeometry x="48.66919817427254" y="171.9099124417662" width="90" height="20" as="geometry" />
        </mxCell>
        <mxCell id="3plvlCjY5yp-JgMp3wiJ-56" value="Powerd by draw.io" style="text;html=1;align=center;verticalAlign=middle;resizable=0;points=[];autosize=1;fontStyle=2;fontFamily=Times New Roman;fontSize=15;rotation=15;" vertex="1" parent="3plvlCjY5yp-JgMp3wiJ-61">
          <mxGeometry x="13.309198174272524" y="145.9299124417662" width="130" height="20" as="geometry" />
        </mxCell>
        <mxCell id="3plvlCjY5yp-JgMp3wiJ-58" value="" style="shape=image;html=1;verticalAlign=top;verticalLabelPosition=bottom;labelBackgroundColor=#ffffff;imageAspect=0;aspect=fixed;image=https://cdn3.iconfinder.com/data/icons/social-media-2169/24/social_media_social_media_logo_github-128.png;shadow=1;sketch=1;fillColor=#00BEF2;fontFamily=Times New Roman;fontSize=15;rotation=15;" vertex="1" parent="3plvlCjY5yp-JgMp3wiJ-61">
          <mxGeometry x="86.66919817427254" y="46.92991244176619" width="28" height="28" as="geometry" />
        </mxCell>
        <mxCell id="3plvlCjY5yp-JgMp3wiJ-62" value="" style="group" vertex="1" connectable="0" parent="1">
          <mxGeometry x="735.1509969521896" y="69.48099695218973" width="61.03800609562063" height="90.51900304781027" as="geometry" />
        </mxCell>
        <mxCell id="3plvlCjY5yp-JgMp3wiJ-35" value="" style="verticalLabelPosition=bottom;html=1;verticalAlign=top;align=center;strokeColor=none;fillColor=#00BEF2;shape=mxgraph.azure.user;direction=east;rotation=359;flipH=1;" vertex="1" parent="3plvlCjY5yp-JgMp3wiJ-62">
          <mxGeometry x="0.5190030478103154" y="0.5190030478102727" width="60" height="60" as="geometry" />
        </mxCell>
        <mxCell id="3plvlCjY5yp-JgMp3wiJ-39" value="&lt;div&gt;User&lt;/div&gt;" style="text;html=1;align=center;verticalAlign=middle;resizable=0;points=[];autosize=1;" vertex="1" parent="3plvlCjY5yp-JgMp3wiJ-62">
          <mxGeometry x="10.519003047810315" y="70.51900304781027" width="40" height="20" as="geometry" />
        </mxCell>
        <mxCell id="3plvlCjY5yp-JgMp3wiJ-63" value="" style="group" vertex="1" connectable="0" parent="1">
          <mxGeometry x="524.64" y="65" width="70" height="95" as="geometry" />
        </mxCell>
        <mxCell id="3plvlCjY5yp-JgMp3wiJ-24" value="" style="shape=image;html=1;verticalAlign=top;verticalLabelPosition=bottom;labelBackgroundColor=#ffffff;imageAspect=0;aspect=fixed;image=https://cdn0.iconfinder.com/data/icons/circle-flat/512/line-128.png" vertex="1" parent="3plvlCjY5yp-JgMp3wiJ-63">
          <mxGeometry width="70" height="70" as="geometry" />
        </mxCell>
        <mxCell id="3plvlCjY5yp-JgMp3wiJ-28" value="LINE" style="text;html=1;align=center;verticalAlign=middle;resizable=0;points=[];autosize=1;" vertex="1" parent="3plvlCjY5yp-JgMp3wiJ-63">
          <mxGeometry x="15" y="75" width="40" height="20" as="geometry" />
        </mxCell>
        <mxCell id="3plvlCjY5yp-JgMp3wiJ-64" value="" style="group" vertex="1" connectable="0" parent="1">
          <mxGeometry x="360" y="60" width="80" height="100" as="geometry" />
        </mxCell>
        <mxCell id="3plvlCjY5yp-JgMp3wiJ-20" value="" style="shape=image;html=1;verticalAlign=top;verticalLabelPosition=bottom;labelBackgroundColor=#ffffff;imageAspect=0;aspect=fixed;image=https://cdn1.iconfinder.com/data/icons/simple-icons/128/heroku-128-black.png" vertex="1" parent="3plvlCjY5yp-JgMp3wiJ-64">
          <mxGeometry width="80" height="80" as="geometry" />
        </mxCell>
        <mxCell id="3plvlCjY5yp-JgMp3wiJ-21" value="Heroku" style="text;html=1;align=center;verticalAlign=middle;resizable=0;points=[];autosize=1;" vertex="1" parent="3plvlCjY5yp-JgMp3wiJ-64">
          <mxGeometry x="15" y="80" width="50" height="20" as="geometry" />
        </mxCell>
        <mxCell id="3plvlCjY5yp-JgMp3wiJ-65" value="" style="group" vertex="1" connectable="0" parent="1">
          <mxGeometry x="360" y="200" width="80" height="100" as="geometry" />
        </mxCell>
        <mxCell id="3plvlCjY5yp-JgMp3wiJ-4" value="" style="shape=image;html=1;verticalAlign=top;verticalLabelPosition=bottom;labelBackgroundColor=#ffffff;imageAspect=0;aspect=fixed;image=https://cdn1.iconfinder.com/data/icons/social-networks-3/512/github-128.png" vertex="1" parent="3plvlCjY5yp-JgMp3wiJ-65">
          <mxGeometry width="80" height="80" as="geometry" />
        </mxCell>
        <mxCell id="3plvlCjY5yp-JgMp3wiJ-9" value="GitHub" style="text;html=1;align=center;verticalAlign=middle;resizable=0;points=[];autosize=1;" vertex="1" parent="3plvlCjY5yp-JgMp3wiJ-65">
          <mxGeometry x="15" y="80" width="50" height="20" as="geometry" />
        </mxCell>
        <mxCell id="3plvlCjY5yp-JgMp3wiJ-66" value="" style="group" vertex="1" connectable="0" parent="1">
          <mxGeometry x="520" y="207.5" width="79.26999999999998" height="92.5" as="geometry" />
        </mxCell>
        <mxCell id="3plvlCjY5yp-JgMp3wiJ-11" value="" style="aspect=fixed;html=1;points=[];align=center;image;fontSize=12;image=img/lib/mscae/Docker.svg;" vertex="1" parent="3plvlCjY5yp-JgMp3wiJ-66">
          <mxGeometry width="79.27" height="65" as="geometry" />
        </mxCell>
        <mxCell id="3plvlCjY5yp-JgMp3wiJ-16" value="&lt;div&gt;Dockerfile&lt;/div&gt;" style="text;html=1;align=center;verticalAlign=middle;resizable=0;points=[];autosize=1;" vertex="1" parent="3plvlCjY5yp-JgMp3wiJ-66">
          <mxGeometry x="4.639999999999986" y="72.5" width="70" height="20" as="geometry" />
        </mxCell>
        <mxCell id="3plvlCjY5yp-JgMp3wiJ-67" value="" style="group" vertex="1" connectable="0" parent="1">
          <mxGeometry x="170" y="344.74099695218973" width="80" height="85.51900304781026" as="geometry" />
        </mxCell>
        <mxCell id="3plvlCjY5yp-JgMp3wiJ-40" value="" style="verticalLabelPosition=bottom;html=1;verticalAlign=top;align=center;strokeColor=none;fillColor=#00BEF2;shape=mxgraph.azure.user;direction=east;rotation=359;flipH=0;" vertex="1" parent="3plvlCjY5yp-JgMp3wiJ-67">
          <mxGeometry x="10" y="0.5190030478102585" width="60" height="60" as="geometry" />
        </mxCell>
        <mxCell id="3plvlCjY5yp-JgMp3wiJ-49" value="Programmer" style="text;html=1;align=center;verticalAlign=middle;resizable=0;points=[];autosize=1;" vertex="1" parent="3plvlCjY5yp-JgMp3wiJ-67">
          <mxGeometry y="65.51900304781026" width="80" height="20" as="geometry" />
        </mxCell>
        <mxCell id="3plvlCjY5yp-JgMp3wiJ-68" value="" style="group" vertex="1" connectable="0" parent="1">
          <mxGeometry x="170" y="69.48" width="155" height="123.05586436748298" as="geometry" />
        </mxCell>
        <mxCell id="3plvlCjY5yp-JgMp3wiJ-51" value="" style="image;html=1;image=img/lib/clip_art/networking/Cloud_128x128.png;fillColor=#00BEF2;" vertex="1" parent="3plvlCjY5yp-JgMp3wiJ-68">
          <mxGeometry width="150" height="96.05274597884366" as="geometry" />
        </mxCell>
        <mxCell id="3plvlCjY5yp-JgMp3wiJ-52" value="Developed on the cloud" style="text;html=1;align=center;verticalAlign=middle;resizable=0;points=[];autosize=1;fontStyle=3;fontFamily=Times New Roman;fontSize=15;" vertex="1" parent="3plvlCjY5yp-JgMp3wiJ-68">
          <mxGeometry x="-5" y="103.05586436748298" width="160" height="20" as="geometry" />
        </mxCell>
        <mxCell id="3plvlCjY5yp-JgMp3wiJ-69" value="" style="group" vertex="1" connectable="0" parent="1">
          <mxGeometry x="360" y="340" width="80" height="95" as="geometry" />
        </mxCell>
        <mxCell id="3plvlCjY5yp-JgMp3wiJ-5" value="" style="shape=image;html=1;verticalAlign=top;verticalLabelPosition=bottom;labelBackgroundColor=#ffffff;imageAspect=0;aspect=fixed;image=https://cdn2.iconfinder.com/data/icons/designer-skills/128/visualstudio-microsoft-webdesign-html-css-javascript-develop-128.png" vertex="1" parent="3plvlCjY5yp-JgMp3wiJ-69">
          <mxGeometry width="80" height="80" as="geometry" />
        </mxCell>
        <mxCell id="3plvlCjY5yp-JgMp3wiJ-8" value="Gitpod" style="text;html=1;align=center;verticalAlign=middle;resizable=0;points=[];autosize=1;" vertex="1" parent="3plvlCjY5yp-JgMp3wiJ-69">
          <mxGeometry x="15" y="75" width="50" height="20" as="geometry" />
        </mxCell>
        <mxCell id="3plvlCjY5yp-JgMp3wiJ-90" value="" style="group" vertex="1" connectable="0" parent="1">
          <mxGeometry x="180" y="205" width="75" height="95" as="geometry" />
        </mxCell>
        <mxCell id="3plvlCjY5yp-JgMp3wiJ-75" value="" style="shape=image;html=1;verticalAlign=top;verticalLabelPosition=bottom;labelBackgroundColor=#ffffff;imageAspect=0;aspect=fixed;image=https://cdn4.iconfinder.com/data/icons/logos-brands-5/24/codecov-128.png;shadow=1;sketch=1;fillColor=#00BEF2;fontFamily=Times New Roman;fontSize=15;" vertex="1" parent="3plvlCjY5yp-JgMp3wiJ-90">
          <mxGeometry width="75" height="75" as="geometry" />
        </mxCell>
        <mxCell id="3plvlCjY5yp-JgMp3wiJ-83" value="Codecov" style="text;html=1;align=center;verticalAlign=middle;resizable=0;points=[];autosize=1;" vertex="1" parent="3plvlCjY5yp-JgMp3wiJ-90">
          <mxGeometry x="7.5" y="75" width="60" height="20" as="geometry" />
        </mxCell>
        <mxCell id="3plvlCjY5yp-JgMp3wiJ-34" value="" style="edgeStyle=orthogonalEdgeStyle;rounded=0;orthogonalLoop=1;jettySize=auto;html=1;" edge="1" parent="1" target="3plvlCjY5yp-JgMp3wiJ-20">
          <mxGeometry relative="1" as="geometry">
            <mxPoint x="520" y="100" as="sourcePoint" />
            <Array as="points">
              <mxPoint x="440" y="100" />
            </Array>
          </mxGeometry>
        </mxCell>
        <mxCell id="3plvlCjY5yp-JgMp3wiJ-32" value="Callback" style="text;html=1;align=center;verticalAlign=middle;resizable=0;points=[];autosize=1;" vertex="1" parent="1">
          <mxGeometry x="460" y="80" width="60" height="20" as="geometry" />
        </mxCell>
        <mxCell id="3plvlCjY5yp-JgMp3wiJ-42" value="Push Message" style="text;html=1;align=center;verticalAlign=middle;resizable=0;points=[];autosize=1;" vertex="1" parent="1">
          <mxGeometry x="634.64" y="70" width="90" height="20" as="geometry" />
        </mxCell>
        <mxCell id="3plvlCjY5yp-JgMp3wiJ-45" value="" style="edgeStyle=orthogonalEdgeStyle;rounded=0;orthogonalLoop=1;jettySize=auto;html=1;" edge="1" parent="1">
          <mxGeometry relative="1" as="geometry">
            <mxPoint x="730" y="90" as="sourcePoint" />
            <mxPoint x="600" y="89.58" as="targetPoint" />
            <Array as="points">
              <mxPoint x="600" y="90" />
            </Array>
          </mxGeometry>
        </mxCell>
        <mxCell id="3plvlCjY5yp-JgMp3wiJ-98" value="" style="edgeStyle=orthogonalEdgeStyle;rounded=0;orthogonalLoop=1;jettySize=auto;html=1;exitX=0.75;exitY=0;exitDx=0;exitDy=0;entryX=0.5;entryY=0;entryDx=0;entryDy=0;entryPerimeter=0;" edge="1" parent="1" source="3plvlCjY5yp-JgMp3wiJ-4" target="3plvlCjY5yp-JgMp3wiJ-57">
          <mxGeometry relative="1" as="geometry">
            <mxPoint x="470" y="170" as="sourcePoint" />
            <mxPoint x="470" y="130" as="targetPoint" />
            <Array as="points">
              <mxPoint x="420" y="170" />
              <mxPoint x="732" y="170" />
            </Array>
          </mxGeometry>
        </mxCell>
        <mxCell id="3plvlCjY5yp-JgMp3wiJ-99" value="Deploy to GitHub Pages" style="text;html=1;align=center;verticalAlign=middle;resizable=0;points=[];autosize=1;" vertex="1" parent="1">
          <mxGeometry x="430" y="172.54" width="140" height="20" as="geometry" />
        </mxCell>
        <mxCell id="3plvlCjY5yp-JgMp3wiJ-76" value="" style="edgeStyle=orthogonalEdgeStyle;rounded=0;orthogonalLoop=1;jettySize=auto;html=1;fontFamily=Times New Roman;fontSize=15;" edge="1" parent="1" source="3plvlCjY5yp-JgMp3wiJ-4">
          <mxGeometry relative="1" as="geometry">
            <mxPoint x="260" y="240" as="targetPoint" />
          </mxGeometry>
        </mxCell>
        <mxCell id="3plvlCjY5yp-JgMp3wiJ-10" value="" style="edgeStyle=orthogonalEdgeStyle;rounded=0;orthogonalLoop=1;jettySize=auto;html=1;" edge="1" parent="1" source="3plvlCjY5yp-JgMp3wiJ-5" target="3plvlCjY5yp-JgMp3wiJ-9">
          <mxGeometry relative="1" as="geometry" />
        </mxCell>
        <mxCell id="3plvlCjY5yp-JgMp3wiJ-7" value="&lt;div&gt;Commit &amp;amp; Push&lt;/div&gt;" style="text;html=1;align=center;verticalAlign=middle;resizable=0;points=[];autosize=1;" vertex="1" parent="1">
          <mxGeometry x="400" y="320" width="100" height="20" as="geometry" />
        </mxCell>
        <mxCell id="3plvlCjY5yp-JgMp3wiJ-18" value="" style="edgeStyle=orthogonalEdgeStyle;shape=link;rounded=0;orthogonalLoop=1;jettySize=auto;html=1;" edge="1" parent="1" source="3plvlCjY5yp-JgMp3wiJ-5" target="3plvlCjY5yp-JgMp3wiJ-16">
          <mxGeometry relative="1" as="geometry">
            <mxPoint x="560" y="370" as="targetPoint" />
          </mxGeometry>
        </mxCell>
        <mxCell id="3plvlCjY5yp-JgMp3wiJ-19" value="build &amp;amp; run" style="text;html=1;align=center;verticalAlign=middle;resizable=0;points=[];autosize=1;" vertex="1" parent="1">
          <mxGeometry x="450" y="385" width="70" height="20" as="geometry" />
        </mxCell>
        <mxCell id="3plvlCjY5yp-JgMp3wiJ-46" value="" style="edgeStyle=orthogonalEdgeStyle;rounded=0;orthogonalLoop=1;jettySize=auto;html=1;entryX=0;entryY=0.5;entryDx=0;entryDy=0;" edge="1" parent="1" target="3plvlCjY5yp-JgMp3wiJ-5">
          <mxGeometry relative="1" as="geometry">
            <mxPoint x="250" y="380" as="sourcePoint" />
            <Array as="points">
              <mxPoint x="250" y="380" />
            </Array>
          </mxGeometry>
        </mxCell>
        <mxCell id="3plvlCjY5yp-JgMp3wiJ-48" value="&lt;div&gt;sign in &amp;amp;&lt;br&gt;&lt;/div&gt;&lt;div&gt;programming&lt;/div&gt;" style="text;html=1;align=center;verticalAlign=middle;resizable=0;points=[];autosize=1;" vertex="1" parent="1">
          <mxGeometry x="250" y="385" width="90" height="30" as="geometry" />
        </mxCell>
        <mxCell id="3plvlCjY5yp-JgMp3wiJ-89" value="" style="edgeStyle=orthogonalEdgeStyle;rounded=0;orthogonalLoop=1;jettySize=auto;html=1;" edge="1" parent="1">
          <mxGeometry relative="1" as="geometry">
            <mxPoint x="216.91" y="340" as="sourcePoint" />
            <mxPoint x="216.91" y="300" as="targetPoint" />
            <Array as="points">
              <mxPoint x="216.91" y="310" />
              <mxPoint x="216.91" y="310" />
            </Array>
          </mxGeometry>
        </mxCell>
        <mxCell id="3plvlCjY5yp-JgMp3wiJ-96" value="Check" style="text;html=1;align=center;verticalAlign=middle;resizable=0;points=[];autosize=1;" vertex="1" parent="1">
          <mxGeometry x="217" y="320" width="50" height="20" as="geometry" />
        </mxCell>
        <mxCell id="3plvlCjY5yp-JgMp3wiJ-78" value="" style="edgeStyle=orthogonalEdgeStyle;rounded=0;orthogonalLoop=1;jettySize=auto;html=1;" edge="1" parent="1">
          <mxGeometry relative="1" as="geometry" />
        </mxCell>
        <mxCell id="3plvlCjY5yp-JgMp3wiJ-79" value="&lt;div&gt;Push coverage&lt;/div&gt;" style="text;html=1;align=center;verticalAlign=middle;resizable=0;points=[];autosize=1;" vertex="1" parent="1">
          <mxGeometry x="264.76" y="240" width="100" height="20" as="geometry" />
        </mxCell>
        <mxCell id="3plvlCjY5yp-JgMp3wiJ-22" value="" style="edgeStyle=orthogonalEdgeStyle;rounded=0;orthogonalLoop=1;jettySize=auto;html=1;exitX=0.5;exitY=0;exitDx=0;exitDy=0;" edge="1" parent="1" source="3plvlCjY5yp-JgMp3wiJ-4" target="3plvlCjY5yp-JgMp3wiJ-21">
          <mxGeometry relative="1" as="geometry" />
        </mxCell>
        <mxCell id="3plvlCjY5yp-JgMp3wiJ-23" value="Deploy" style="text;html=1;align=center;verticalAlign=middle;resizable=0;points=[];autosize=1;" vertex="1" parent="1">
          <mxGeometry x="350" y="172.54" width="50" height="20" as="geometry" />
        </mxCell>
      </root>
    </mxGraphModel>
  </diagram>
</mxfile>
